<?xml version="1.0" standalone="no"?>
<!DOCTYPE svg PUBLIC "-//W3C//DTD SVG 20010904//EN"
 "http://www.w3.org/TR/2001/REC-SVG-20010904/DTD/svg10.dtd">
<svg version="1.0" xmlns="http://www.w3.org/2000/svg"
 width="300.000000pt" height="300.000000pt" viewBox="0 0 300.000000 300.000000"
 preserveAspectRatio="xMidYMid meet">
<metadata>
Created by potrace 1.11, written by Peter Selinger 2001-2013
</metadata>
<g transform="translate(0.000000,300.000000) scale(0.100000,-0.100000)"
fill="#000000" stroke="none">
<path d="M70 2920 c0 -5 5 -10 10 -10 6 0 10 5 10 10 0 6 -4 10 -10 10 -5 0
-10 -4 -10 -10z"/>
<path d="M520 2920 c0 -5 5 -10 10 -10 6 0 10 5 10 10 0 6 -4 10 -10 10 -5 0
-10 -4 -10 -10z"/>
<path d="M970 2920 c0 -5 5 -10 10 -10 6 0 10 5 10 10 0 6 -4 10 -10 10 -5 0
-10 -4 -10 -10z"/>
<path d="M1420 2920 c0 -5 5 -10 10 -10 6 0 10 5 10 10 0 6 -4 10 -10 10 -5 0
-10 -4 -10 -10z"/>
<path d="M1870 2920 c0 -5 5 -10 10 -10 6 0 10 5 10 10 0 6 -4 10 -10 10 -5 0
-10 -4 -10 -10z"/>
<path d="M2320 2920 c0 -5 5 -10 10 -10 6 0 10 5 10 10 0 6 -4 10 -10 10 -5 0
-10 -4 -10 -10z"/>
<path d="M2770 2920 c0 -5 5 -10 10 -10 6 0 10 5 10 10 0 6 -4 10 -10 10 -5 0
-10 -4 -10 -10z"/>
<path d="M500 2165 l0 -335 55 0 55 0 0 280 0 280 280 0 280 0 0 55 0 55 -335
0 -335 0 0 -335z"/>
<path d="M1830 2445 l0 -55 280 0 280 0 0 -280 0 -280 55 0 55 0 0 335 0 335
-335 0 -335 0 0 -55z"/>
<path d="M70 2470 c0 -5 5 -10 10 -10 6 0 10 5 10 10 0 6 -4 10 -10 10 -5 0
-10 -4 -10 -10z"/>
<path d="M1420 2470 c0 -5 5 -10 10 -10 6 0 10 5 10 10 0 6 -4 10 -10 10 -5 0
-10 -4 -10 -10z"/>
<path d="M2770 2470 c0 -5 5 -10 10 -10 6 0 10 5 10 10 0 6 -4 10 -10 10 -5 0
-10 -4 -10 -10z"/>
<path d="M1120 1925 c0 -10 10 -15 34 -15 19 0 45 -9 60 -21 l26 -20 0 -365 0
-365 -25 -24 c-16 -17 -35 -25 -60 -25 -24 0 -35 -4 -35 -15 0 -13 47 -15 365
-15 l365 0 0 140 c0 109 -3 140 -13 140 -7 0 -21 -24 -30 -53 -31 -98 -98
-154 -206 -172 -32 -5 -46 -4 -52 6 -5 8 -9 9 -9 3 0 -13 -48 -7 -67 9 -10 7
-13 55 -13 178 l0 169 26 6 c14 4 57 4 95 1 l69 -6 2 40 c0 21 1 45 2 52 1 9
-23 11 -96 9 l-98 -4 0 151 0 151 98 0 c146 -1 201 -32 245 -141 12 -30 27
-56 32 -59 6 -3 11 43 13 128 l3 132 -366 0 c-318 0 -365 -2 -365 -15z"/>
<path d="M500 835 l0 -335 335 0 335 0 0 55 0 55 -280 0 -280 0 0 280 0 280
-55 0 -55 0 0 -335z"/>
<path d="M2390 890 l0 -280 -280 0 -280 0 0 -55 0 -55 335 0 335 0 0 335 0
335 -55 0 -55 0 0 -280z"/>
</g>
</svg>
